<svg xmlns="http://www.w3.org/2000/svg" width="1200" height="800" viewBox="0 0 1200 800"><defs><linearGradient id="bg" x1="0" y1="0" x2="1" y2="1"><stop stop-color="#f8f9fc"/><stop offset="1" stop-color="#eef0f6"/></linearGradient><linearGradient id="p" x1="0" y1="0" x2="1" y2="1"><stop stop-color="#9b87ff"/><stop offset="1" stop-color="#5e46ff"/></linearGradient></defs><rect width="1200" height="800" rx="36" fill="url(#bg)"/><rect x="70" y="70" width="1060" height="660" rx="30" fill="#fff" stroke="#d9dce6"/><g font-family="Arial"><text x="120" y="140" font-size="30" font-weight="700" fill="#111827">PERFORMANCE + LEARNING</text><text x="120" y="180" font-size="18" fill="#6b7280">Amplifi carries what worked into the next campaign.</text><g><rect x="120" y="240" width="260" height="150" rx="24" fill="#f7f7fb"/><text x="145" y="280" font-size="14" fill="#6b7280">ENGAGEMENT</text><text x="145" y="345" font-size="48" font-weight="700" fill="#111827">+38%</text><rect x="410" y="240" width="260" height="150" rx="24" fill="#f7f7fb"/><text x="435" y="280" font-size="14" fill="#6b7280">BOOKING CLICKS</text><text x="435" y="345" font-size="48" font-weight="700" fill="#111827">+21%</text><rect x="700" y="240" width="310" height="150" rx="24" fill="#151b2a"/><text x="730" y="280" font-size="14" fill="#aaa0ff">AMPLIFI LEARNED</text><text x="730" y="325" font-size="22" font-weight="700" fill="#fff">Midweek convenience</text><text x="730" y="355" font-size="22" font-weight="700" fill="#fff">outperformed discounting.</text></g><path d="M140 560 C260 500 320 540 430 470 S650 420 760 500 S950 430 1040 365" fill="none" stroke="url(#p)" stroke-width="12" stroke-linecap="round"/><g fill="#765fff"><circle cx="140" cy="560" r="10"/><circle cx="430" cy="470" r="10"/><circle cx="760" cy="500" r="10"/><circle cx="1040" cy="365" r="10"/></g><rect x="700" y="560" width="310" height="82" rx="22" fill="#ece8ff"/><text x="730" y="594" font-size="13" fill="#6f52ff">NEXT OPPORTUNITY</text><text x="730" y="625" font-size="20" font-weight="700" fill="#3f2fb4">Build around saved time.</text></g></svg>