<svg xmlns="http://www.w3.org/2000/svg" width="1200" height="800" viewBox="0 0 1200 800"><defs><linearGradient id="bg" x1="0" y1="0" x2="1" y2="1"><stop stop-color="#130f2d"/><stop offset="1" stop-color="#2d1f64"/></linearGradient><linearGradient id="orb" x1="0" y1="0" x2="1" y2="1"><stop stop-color="#c4b8ff"/><stop offset="1" stop-color="#6b50ff"/></linearGradient></defs><rect width="1200" height="800" rx="36" fill="url(#bg)"/><g font-family="Arial"><text x="70" y="90" font-size="30" font-weight="700" fill="#fff">EVA · CAMPAIGN CONTROL</text><text x="70" y="130" font-size="18" fill="#c8c0ff">Your guide inside the Amplifi operating system.</text><circle cx="245" cy="400" r="135" fill="url(#orb)"/><circle cx="245" cy="355" r="54" fill="#f1d3bd"/><path d="M145 540c25-130 175-150 200 0" fill="#17162d"/><circle cx="222" cy="350" r="5" fill="#272039"/><circle cx="268" cy="350" r="5" fill="#272039"/><path d="M228 382q17 12 34 0" stroke="#9e6259" stroke-width="4" fill="none" stroke-linecap="round"/><rect x="430" y="190" width="690" height="430" rx="30" fill="#0d1424" stroke="#6e57ff"/><text x="480" y="245" font-size="14" fill="#aaa0ff">EVA · CAMPAIGN READY</text><text x="480" y="300" font-size="34" font-weight="700" fill="#fff">Your campaign is ready.</text><text x="480" y="345" font-size="18" fill="#cbd5e1">I found the opportunity, built the sequence,</text><text x="480" y="374" font-size="18" fill="#cbd5e1">checked the CTA and brought it back for review.</text><g font-size="15" font-weight="700"><rect x="480" y="430" width="145" height="46" rx="23" fill="#201a48"/><text x="552" y="459" text-anchor="middle" fill="#c9c1ff">3 POSTS</text><rect x="645" y="430" width="180" height="46" rx="23" fill="#201a48"/><text x="735" y="459" text-anchor="middle" fill="#c9c1ff">VISUALS READY</text><rect x="845" y="430" width="155" height="46" rx="23" fill="#201a48"/><text x="922" y="459" text-anchor="middle" fill="#c9c1ff">CTA CHECKED</text></g><rect x="480" y="520" width="200" height="58" rx="16" fill="#745cff"/><text x="580" y="556" text-anchor="middle" font-size="17" font-weight="700" fill="#fff">REVIEW CAMPAIGN</text><rect x="700" y="520" width="130" height="58" rx="16" fill="#1b2940"/><text x="765" y="556" text-anchor="middle" font-size="17" font-weight="700" fill="#fff">APPROVE</text></g></svg>